<?xml version="1.0" encoding="utf-8" standalone="no"?>
<!DOCTYPE svg PUBLIC "-//W3C//DTD SVG 1.1//EN"
  "http://www.w3.org/Graphics/SVG/1.1/DTD/svg11.dtd">
<svg xmlns:xlink="http://www.w3.org/1999/xlink" width="460.8pt" height="345.6pt" viewBox="0 0 460.8 345.6" xmlns="http://www.w3.org/2000/svg" version="1.1">
 <metadata>
  <rdf:RDF xmlns:dc="http://purl.org/dc/elements/1.1/" xmlns:cc="http://creativecommons.org/ns#" xmlns:rdf="http://www.w3.org/1999/02/22-rdf-syntax-ns#">
   <cc:Work>
    <dc:type rdf:resource="http://purl.org/dc/dcmitype/StillImage"/>
    <dc:date>2025-11-13T14:18:23.269248</dc:date>
    <dc:format>image/svg+xml</dc:format>
    <dc:creator>
     <cc:Agent>
      <dc:title>Matplotlib v3.7.1, https://matplotlib.org/</dc:title>
     </cc:Agent>
    </dc:creator>
   </cc:Work>
  </rdf:RDF>
 </metadata>
 <defs>
  <style type="text/css">*{stroke-linejoin: round; stroke-linecap: butt}</style>
 </defs>
 <g id="figure_1">
  <g id="patch_1">
   <path d="M 0 345.6 
L 460.8 345.6 
L 460.8 0 
L 0 0 
z
" style="fill: #ffffff"/>
  </g>
  <g id="axes_1">
   <g id="patch_2">
    <path d="M 67.72298 289.273356 
L 447.84 289.273356 
L 447.84 12.96 
L 67.72298 12.96 
z
" style="fill: #ffffff"/>
   </g>
   <g id="PathCollection_1">
    <defs>
     <path id="m21422e954c" d="M -0 5.477226 
L 3.286335 0 
L 0 -5.477226 
L -3.286335 -0 
z
" style="stroke: #000000; stroke-width: 1.5"/>
    </defs>
    <g clip-path="url(#p45ac25673b)">
     <use xlink:href="#m21422e954c" x="85.001026" y="63.558125" style="fill: #d8434e; stroke: #000000; stroke-width: 1.5"/>
     <use xlink:href="#m21422e954c" x="109.68395" y="264.877874" style="fill: #d8434e; stroke: #000000; stroke-width: 1.5"/>
     <use xlink:href="#m21422e954c" x="134.366873" y="266.018142" style="fill: #d8434e; stroke: #000000; stroke-width: 1.5"/>
     <use xlink:href="#m21422e954c" x="159.049796" y="264.147319" style="fill: #d8434e; stroke: #000000; stroke-width: 1.5"/>
     <use xlink:href="#m21422e954c" x="183.73272" y="253.381584" style="fill: #d8434e; stroke: #000000; stroke-width: 1.5"/>
     <use xlink:href="#m21422e954c" x="208.415643" y="226.128972" style="fill: #d8434e; stroke: #000000; stroke-width: 1.5"/>
     <use xlink:href="#m21422e954c" x="233.098567" y="179.7121" style="fill: #d8434e; stroke: #000000; stroke-width: 1.5"/>
     <use xlink:href="#m21422e954c" x="257.78149" y="115.118772" style="fill: #d8434e; stroke: #000000; stroke-width: 1.5"/>
     <use xlink:href="#m21422e954c" x="282.464413" y="60.834139" style="fill: #d8434e; stroke: #000000; stroke-width: 1.5"/>
     <use xlink:href="#m21422e954c" x="307.147337" y="52.628895" style="fill: #d8434e; stroke: #000000; stroke-width: 1.5"/>
     <use xlink:href="#m21422e954c" x="331.83026" y="46.938458" style="fill: #d8434e; stroke: #000000; stroke-width: 1.5"/>
     <use xlink:href="#m21422e954c" x="356.513183" y="42.901744" style="fill: #d8434e; stroke: #000000; stroke-width: 1.5"/>
     <use xlink:href="#m21422e954c" x="381.196107" y="39.94292" style="fill: #d8434e; stroke: #000000; stroke-width: 1.5"/>
     <use xlink:href="#m21422e954c" x="405.87903" y="37.71855" style="fill: #d8434e; stroke: #000000; stroke-width: 1.5"/>
     <use xlink:href="#m21422e954c" x="430.561954" y="36.787919" style="fill: #d8434e; stroke: #000000; stroke-width: 1.5"/>
    </g>
   </g>
   <g id="PathCollection_2">
    <defs>
     <path id="ma5e48ecfed" d="M -0 5.477226 
L 3.286335 0 
L 0 -5.477226 
L -3.286335 -0 
z
" style="stroke: #000000; stroke-width: 1.5"/>
    </defs>
    <g clip-path="url(#p45ac25673b)">
     <use xlink:href="#ma5e48ecfed" x="134.366873" y="46.420891" style="fill: #f67a49; stroke: #000000; stroke-width: 1.5"/>
     <use xlink:href="#ma5e48ecfed" x="159.049796" y="267.728095" style="fill: #f67a49; stroke: #000000; stroke-width: 1.5"/>
     <use xlink:href="#ma5e48ecfed" x="183.73272" y="269.333956" style="fill: #f67a49; stroke: #000000; stroke-width: 1.5"/>
     <use xlink:href="#ma5e48ecfed" x="208.415643" y="262.262144" style="fill: #f67a49; stroke: #000000; stroke-width: 1.5"/>
     <use xlink:href="#ma5e48ecfed" x="233.098567" y="236.191062" style="fill: #f67a49; stroke: #000000; stroke-width: 1.5"/>
     <use xlink:href="#ma5e48ecfed" x="257.78149" y="186.815941" style="fill: #f67a49; stroke: #000000; stroke-width: 1.5"/>
     <use xlink:href="#ma5e48ecfed" x="282.464413" y="111.701948" style="fill: #f67a49; stroke: #000000; stroke-width: 1.5"/>
     <use xlink:href="#ma5e48ecfed" x="307.147337" y="63.039024" style="fill: #f67a49; stroke: #000000; stroke-width: 1.5"/>
     <use xlink:href="#ma5e48ecfed" x="331.83026" y="53.799454" style="fill: #f67a49; stroke: #000000; stroke-width: 1.5"/>
     <use xlink:href="#ma5e48ecfed" x="356.513183" y="48.034285" style="fill: #f67a49; stroke: #000000; stroke-width: 1.5"/>
     <use xlink:href="#ma5e48ecfed" x="381.196107" y="44.022174" style="fill: #f67a49; stroke: #000000; stroke-width: 1.5"/>
     <use xlink:href="#ma5e48ecfed" x="405.87903" y="40.844879" style="fill: #f67a49; stroke: #000000; stroke-width: 1.5"/>
     <use xlink:href="#ma5e48ecfed" x="430.561954" y="38.549169" style="fill: #f67a49; stroke: #000000; stroke-width: 1.5"/>
    </g>
   </g>
   <g id="PathCollection_3">
    <defs>
     <path id="m188aaacd60" d="M -0 5.477226 
L 3.286335 0 
L 0 -5.477226 
L -3.286335 -0 
z
" style="stroke: #000000; stroke-width: 1.5"/>
    </defs>
    <g clip-path="url(#p45ac25673b)">
     <use xlink:href="#m188aaacd60" x="85.001026" y="26.234517" style="fill: #fdbf6f; stroke: #000000; stroke-width: 1.5"/>
     <use xlink:href="#m188aaacd60" x="109.68395" y="26.409109" style="fill: #fdbf6f; stroke: #000000; stroke-width: 1.5"/>
     <use xlink:href="#m188aaacd60" x="134.366873" y="34.834459" style="fill: #fdbf6f; stroke: #000000; stroke-width: 1.5"/>
     <use xlink:href="#m188aaacd60" x="159.049796" y="267.419041" style="fill: #fdbf6f; stroke: #000000; stroke-width: 1.5"/>
     <use xlink:href="#m188aaacd60" x="183.73272" y="271.30731" style="fill: #fdbf6f; stroke: #000000; stroke-width: 1.5"/>
     <use xlink:href="#m188aaacd60" x="208.415643" y="271.623331" style="fill: #fdbf6f; stroke: #000000; stroke-width: 1.5"/>
     <use xlink:href="#m188aaacd60" x="233.098567" y="257.922408" style="fill: #fdbf6f; stroke: #000000; stroke-width: 1.5"/>
     <use xlink:href="#m188aaacd60" x="257.78149" y="214.828087" style="fill: #fdbf6f; stroke: #000000; stroke-width: 1.5"/>
     <use xlink:href="#m188aaacd60" x="282.464413" y="141.149663" style="fill: #fdbf6f; stroke: #000000; stroke-width: 1.5"/>
     <use xlink:href="#m188aaacd60" x="307.147337" y="67.151855" style="fill: #fdbf6f; stroke: #000000; stroke-width: 1.5"/>
     <use xlink:href="#m188aaacd60" x="331.83026" y="58.013903" style="fill: #fdbf6f; stroke: #000000; stroke-width: 1.5"/>
     <use xlink:href="#m188aaacd60" x="356.513183" y="50.861201" style="fill: #fdbf6f; stroke: #000000; stroke-width: 1.5"/>
     <use xlink:href="#m188aaacd60" x="381.196107" y="45.87051" style="fill: #fdbf6f; stroke: #000000; stroke-width: 1.5"/>
     <use xlink:href="#m188aaacd60" x="405.87903" y="41.949865" style="fill: #fdbf6f; stroke: #000000; stroke-width: 1.5"/>
     <use xlink:href="#m188aaacd60" x="430.561954" y="39.67054" style="fill: #fdbf6f; stroke: #000000; stroke-width: 1.5"/>
    </g>
   </g>
   <g id="PathCollection_4">
    <defs>
     <path id="m195bf8ee5e" d="M -0 5.477226 
L 3.286335 0 
L 0 -5.477226 
L -3.286335 -0 
z
" style="stroke: #000000; stroke-width: 1.5"/>
    </defs>
    <g clip-path="url(#p45ac25673b)">
     <use xlink:href="#m195bf8ee5e" x="109.68395" y="25.536619" style="fill: #feeda1; stroke: #000000; stroke-width: 1.5"/>
     <use xlink:href="#m195bf8ee5e" x="134.366873" y="27.927174" style="fill: #feeda1; stroke: #000000; stroke-width: 1.5"/>
     <use xlink:href="#m195bf8ee5e" x="159.049796" y="263.783746" style="fill: #feeda1; stroke: #000000; stroke-width: 1.5"/>
     <use xlink:href="#m195bf8ee5e" x="183.73272" y="269.76759" style="fill: #feeda1; stroke: #000000; stroke-width: 1.5"/>
     <use xlink:href="#m195bf8ee5e" x="208.415643" y="276.713658" style="fill: #feeda1; stroke: #000000; stroke-width: 1.5"/>
     <use xlink:href="#m195bf8ee5e" x="233.098567" y="270.69684" style="fill: #feeda1; stroke: #000000; stroke-width: 1.5"/>
     <use xlink:href="#m195bf8ee5e" x="257.78149" y="219.692125" style="fill: #feeda1; stroke: #000000; stroke-width: 1.5"/>
     <use xlink:href="#m195bf8ee5e" x="282.464413" y="155.666437" style="fill: #feeda1; stroke: #000000; stroke-width: 1.5"/>
     <use xlink:href="#m195bf8ee5e" x="307.147337" y="71.814763" style="fill: #feeda1; stroke: #000000; stroke-width: 1.5"/>
     <use xlink:href="#m195bf8ee5e" x="331.83026" y="59.880855" style="fill: #feeda1; stroke: #000000; stroke-width: 1.5"/>
     <use xlink:href="#m195bf8ee5e" x="356.513183" y="52.048888" style="fill: #feeda1; stroke: #000000; stroke-width: 1.5"/>
     <use xlink:href="#m195bf8ee5e" x="381.196107" y="46.640879" style="fill: #feeda1; stroke: #000000; stroke-width: 1.5"/>
     <use xlink:href="#m195bf8ee5e" x="405.87903" y="42.757935" style="fill: #feeda1; stroke: #000000; stroke-width: 1.5"/>
     <use xlink:href="#m195bf8ee5e" x="430.561954" y="37.880529" style="fill: #feeda1; stroke: #000000; stroke-width: 1.5"/>
    </g>
   </g>
   <g id="PathCollection_5">
    <defs>
     <path id="m27fc6459e7" d="M -0 5.477226 
L 3.286335 0 
L 0 -5.477226 
L -3.286335 -0 
z
" style="stroke: #000000; stroke-width: 1.5"/>
    </defs>
    <g clip-path="url(#p45ac25673b)">
     <use xlink:href="#m27fc6459e7" x="159.049796" y="26.523239" style="fill: #f1f9a9; stroke: #000000; stroke-width: 1.5"/>
     <use xlink:href="#m27fc6459e7" x="183.73272" y="27.873222" style="fill: #f1f9a9; stroke: #000000; stroke-width: 1.5"/>
     <use xlink:href="#m27fc6459e7" x="208.415643" y="29.440864" style="fill: #f1f9a9; stroke: #000000; stroke-width: 1.5"/>
     <use xlink:href="#m27fc6459e7" x="233.098567" y="34.828721" style="fill: #f1f9a9; stroke: #000000; stroke-width: 1.5"/>
     <use xlink:href="#m27fc6459e7" x="257.78149" y="26.195506" style="fill: #f1f9a9; stroke: #000000; stroke-width: 1.5"/>
     <use xlink:href="#m27fc6459e7" x="282.464413" y="32.447497" style="fill: #f1f9a9; stroke: #000000; stroke-width: 1.5"/>
     <use xlink:href="#m27fc6459e7" x="307.147337" y="58.816217" style="fill: #f1f9a9; stroke: #000000; stroke-width: 1.5"/>
     <use xlink:href="#m27fc6459e7" x="331.83026" y="63.090634" style="fill: #f1f9a9; stroke: #000000; stroke-width: 1.5"/>
     <use xlink:href="#m27fc6459e7" x="356.513183" y="51.608125" style="fill: #f1f9a9; stroke: #000000; stroke-width: 1.5"/>
     <use xlink:href="#m27fc6459e7" x="381.196107" y="42.010178" style="fill: #f1f9a9; stroke: #000000; stroke-width: 1.5"/>
     <use xlink:href="#m27fc6459e7" x="405.87903" y="40.24781" style="fill: #f1f9a9; stroke: #000000; stroke-width: 1.5"/>
     <use xlink:href="#m27fc6459e7" x="430.561954" y="39.866311" style="fill: #f1f9a9; stroke: #000000; stroke-width: 1.5"/>
    </g>
   </g>
   <g id="PathCollection_6">
    <defs>
     <path id="ma25e9ae25b" d="M -0 5.477226 
L 3.286335 0 
L 0 -5.477226 
L -3.286335 -0 
z
" style="stroke: #000000; stroke-width: 1.5"/>
    </defs>
    <g clip-path="url(#p45ac25673b)">
     <use xlink:href="#ma25e9ae25b" x="109.68395" y="25.519698" style="fill: #74c7a5; stroke: #000000; stroke-width: 1.5"/>
     <use xlink:href="#ma25e9ae25b" x="134.366873" y="25.87084" style="fill: #74c7a5; stroke: #000000; stroke-width: 1.5"/>
     <use xlink:href="#ma25e9ae25b" x="208.415643" y="29.667334" style="fill: #74c7a5; stroke: #000000; stroke-width: 1.5"/>
     <use xlink:href="#ma25e9ae25b" x="307.147337" y="95.641309" style="fill: #74c7a5; stroke: #000000; stroke-width: 1.5"/>
     <use xlink:href="#ma25e9ae25b" x="331.83026" y="71.429445" style="fill: #74c7a5; stroke: #000000; stroke-width: 1.5"/>
     <use xlink:href="#ma25e9ae25b" x="356.513183" y="54.226512" style="fill: #74c7a5; stroke: #000000; stroke-width: 1.5"/>
     <use xlink:href="#ma25e9ae25b" x="381.196107" y="42.962578" style="fill: #74c7a5; stroke: #000000; stroke-width: 1.5"/>
     <use xlink:href="#ma25e9ae25b" x="405.87903" y="43.650382" style="fill: #74c7a5; stroke: #000000; stroke-width: 1.5"/>
     <use xlink:href="#ma25e9ae25b" x="430.561954" y="40.618479" style="fill: #74c7a5; stroke: #000000; stroke-width: 1.5"/>
    </g>
   </g>
   <g id="PathCollection_7">
    <defs>
     <path id="md6b1c93fbe" d="M -0 5.477226 
L 3.286335 0 
L 0 -5.477226 
L -3.286335 -0 
z
" style="stroke: #000000; stroke-width: 1.5"/>
    </defs>
    <g clip-path="url(#p45ac25673b)">
     <use xlink:href="#md6b1c93fbe" x="159.049796" y="26.523239" style="fill: #378ebb; stroke: #000000; stroke-width: 1.5"/>
     <use xlink:href="#md6b1c93fbe" x="183.73272" y="27.873222" style="fill: #378ebb; stroke: #000000; stroke-width: 1.5"/>
     <use xlink:href="#md6b1c93fbe" x="208.415643" y="29.440864" style="fill: #378ebb; stroke: #000000; stroke-width: 1.5"/>
     <use xlink:href="#md6b1c93fbe" x="233.098567" y="34.828721" style="fill: #378ebb; stroke: #000000; stroke-width: 1.5"/>
     <use xlink:href="#md6b1c93fbe" x="257.78149" y="26.195506" style="fill: #378ebb; stroke: #000000; stroke-width: 1.5"/>
     <use xlink:href="#md6b1c93fbe" x="282.464413" y="32.447497" style="fill: #378ebb; stroke: #000000; stroke-width: 1.5"/>
     <use xlink:href="#md6b1c93fbe" x="307.147337" y="58.816217" style="fill: #378ebb; stroke: #000000; stroke-width: 1.5"/>
     <use xlink:href="#md6b1c93fbe" x="331.83026" y="63.090634" style="fill: #378ebb; stroke: #000000; stroke-width: 1.5"/>
     <use xlink:href="#md6b1c93fbe" x="356.513183" y="51.608125" style="fill: #378ebb; stroke: #000000; stroke-width: 1.5"/>
     <use xlink:href="#md6b1c93fbe" x="381.196107" y="42.010178" style="fill: #378ebb; stroke: #000000; stroke-width: 1.5"/>
     <use xlink:href="#md6b1c93fbe" x="405.87903" y="40.24781" style="fill: #378ebb; stroke: #000000; stroke-width: 1.5"/>
     <use xlink:href="#md6b1c93fbe" x="430.561954" y="39.866311" style="fill: #378ebb; stroke: #000000; stroke-width: 1.5"/>
    </g>
   </g>
   <g id="PathCollection_8">
    <defs>
     <path id="m843b58305f" d="M 0 4.472136 
C 1.186024 4.472136 2.323632 4.000923 3.162278 3.162278 
C 4.000923 2.323632 4.472136 1.186024 4.472136 0 
C 4.472136 -1.186024 4.000923 -2.323632 3.162278 -3.162278 
C 2.323632 -4.000923 1.186024 -4.472136 0 -4.472136 
C -1.186024 -4.472136 -2.323632 -4.000923 -3.162278 -3.162278 
C -4.000923 -2.323632 -4.472136 -1.186024 -4.472136 0 
C -4.472136 1.186024 -4.000923 2.323632 -3.162278 3.162278 
C -2.323632 4.000923 -1.186024 4.472136 0 4.472136 
z
" style="stroke: #000000; stroke-width: 1.5"/>
    </defs>
    <g clip-path="url(#p45ac25673b)">
     <use xlink:href="#m843b58305f" x="282.464413" y="167.268196" style="fill: #ffffff; stroke: #000000; stroke-width: 1.5"/>
     <use xlink:href="#m843b58305f" x="257.78149" y="246.878543" style="fill: #ffffff; stroke: #000000; stroke-width: 1.5"/>
    </g>
   </g>
   <g id="patch_3">
    <path d="M 134.366873 289.273356 
L 134.366873 12.96 
L 307.147337 12.96 
L 307.147337 289.273356 
z
" clip-path="url(#p45ac25673b)" style="fill: #808080; opacity: 0.3"/>
   </g>
   <g id="matplotlib.axis_1">
    <g id="xtick_1">
     <g id="line2d_1">
      <defs>
       <path id="mf7d1614584" d="M 0 0 
L 0 -7 
" style="stroke: #000000; stroke-width: 1.5"/>
      </defs>
      <g>
       <use xlink:href="#mf7d1614584" x="97.342488" y="289.273356" style="stroke: #000000; stroke-width: 1.5"/>
      </g>
     </g>
     <g id="text_1">
      <!-- $\mathdefault{0.025}$ -->
      <g transform="translate(78.45517 305.226656) scale(0.18 -0.18)">
       <defs>
        <path id="CMR17-30" d="M 2688 2038 
C 2688 2430 2682 3099 2413 3613 
C 2176 4063 1798 4224 1466 4224 
C 1158 4224 768 4082 525 3620 
C 269 3137 243 2539 243 2038 
C 243 1671 250 1112 448 623 
C 723 -39 1216 -128 1466 -128 
C 1760 -128 2208 -7 2470 604 
C 2662 1048 2688 1568 2688 2038 
z
M 1466 -26 
C 1056 -26 813 328 723 816 
C 653 1196 653 1749 653 2109 
C 653 2604 653 3015 736 3407 
C 858 3954 1216 4121 1466 4121 
C 1728 4121 2067 3947 2189 3420 
C 2272 3054 2278 2623 2278 2109 
C 2278 1691 2278 1176 2202 797 
C 2067 96 1690 -26 1466 -26 
z
" transform="scale(0.015625)"/>
        <path id="CMMI12-3a" d="M 1178 307 
C 1178 492 1024 620 870 620 
C 685 620 557 467 557 313 
C 557 128 710 0 864 0 
C 1050 0 1178 153 1178 307 
z
" transform="scale(0.015625)"/>
        <path id="CMR17-32" d="M 2669 990 
L 2554 990 
C 2490 537 2438 460 2413 422 
C 2381 371 1920 371 1830 371 
L 602 371 
C 832 620 1280 1073 1824 1596 
C 2214 1966 2669 2400 2669 3033 
C 2669 3788 2067 4224 1395 4224 
C 691 4224 262 3603 262 3027 
C 262 2777 448 2745 525 2745 
C 589 2745 781 2783 781 3007 
C 781 3206 614 3264 525 3264 
C 486 3264 448 3257 422 3244 
C 544 3788 915 4057 1306 4057 
C 1862 4057 2227 3616 2227 3033 
C 2227 2477 1901 1998 1536 1583 
L 262 147 
L 262 0 
L 2515 0 
L 2669 990 
z
" transform="scale(0.015625)"/>
        <path id="CMR17-35" d="M 730 3750 
C 794 3724 1056 3641 1325 3641 
C 1920 3641 2246 3961 2432 4140 
C 2432 4191 2432 4224 2394 4224 
C 2387 4224 2374 4224 2323 4198 
C 2099 4102 1837 4032 1517 4032 
C 1325 4032 1037 4055 723 4191 
C 653 4224 640 4224 634 4224 
C 602 4224 595 4217 595 4090 
L 595 2231 
C 595 2113 595 2080 659 2080 
C 691 2080 704 2093 736 2139 
C 941 2435 1222 2560 1542 2560 
C 1766 2560 2246 2415 2246 1293 
C 2246 1087 2246 716 2054 422 
C 1894 159 1645 25 1370 25 
C 947 25 518 319 403 812 
C 429 806 480 793 506 793 
C 589 793 749 838 749 1036 
C 749 1209 627 1280 506 1280 
C 358 1280 262 1190 262 1011 
C 262 454 704 -128 1382 -128 
C 2042 -128 2669 441 2669 1267 
C 2669 2054 2170 2662 1549 2662 
C 1222 2662 947 2540 730 2304 
L 730 3750 
z
" transform="scale(0.015625)"/>
       </defs>
       <use xlink:href="#CMR17-30" transform="scale(0.996264)"/>
       <use xlink:href="#CMMI12-3a" transform="translate(45.690477 0) scale(0.996264)"/>
       <use xlink:href="#CMR17-30" transform="translate(72.787654 0) scale(0.996264)"/>
       <use xlink:href="#CMR17-32" transform="translate(118.478131 0) scale(0.996264)"/>
       <use xlink:href="#CMR17-35" transform="translate(164.168608 0) scale(0.996264)"/>
      </g>
     </g>
    </g>
    <g id="xtick_2">
     <g id="line2d_2">
      <g>
       <use xlink:href="#mf7d1614584" x="159.049796" y="289.273356" style="stroke: #000000; stroke-width: 1.5"/>
      </g>
     </g>
     <g id="text_2">
      <!-- $\mathdefault{0.050}$ -->
      <g transform="translate(140.162479 305.226656) scale(0.18 -0.18)">
       <use xlink:href="#CMR17-30" transform="scale(0.996264)"/>
       <use xlink:href="#CMMI12-3a" transform="translate(45.690477 0) scale(0.996264)"/>
       <use xlink:href="#CMR17-30" transform="translate(72.787654 0) scale(0.996264)"/>
       <use xlink:href="#CMR17-35" transform="translate(118.478131 0) scale(0.996264)"/>
       <use xlink:href="#CMR17-30" transform="translate(164.168608 0) scale(0.996264)"/>
      </g>
     </g>
    </g>
    <g id="xtick_3">
     <g id="line2d_3">
      <g>
       <use xlink:href="#mf7d1614584" x="220.757105" y="289.273356" style="stroke: #000000; stroke-width: 1.5"/>
      </g>
     </g>
     <g id="text_3">
      <!-- $\mathdefault{0.075}$ -->
      <g transform="translate(201.869787 305.226656) scale(0.18 -0.18)">
       <defs>
        <path id="CMR17-37" d="M 2886 3955 
L 2886 4096 
L 1382 4096 
C 634 4096 621 4166 595 4288 
L 480 4288 
L 294 3104 
L 410 3104 
C 429 3226 474 3552 550 3673 
C 589 3724 1062 3724 1171 3724 
L 2579 3724 
L 1869 2670 
C 1395 1961 1069 1003 1069 166 
C 1069 89 1069 -128 1299 -128 
C 1530 -128 1530 89 1530 172 
L 1530 466 
C 1530 1514 1709 2204 2003 2644 
L 2886 3955 
z
" transform="scale(0.015625)"/>
       </defs>
       <use xlink:href="#CMR17-30" transform="scale(0.996264)"/>
       <use xlink:href="#CMMI12-3a" transform="translate(45.690477 0) scale(0.996264)"/>
       <use xlink:href="#CMR17-30" transform="translate(72.787654 0) scale(0.996264)"/>
       <use xlink:href="#CMR17-37" transform="translate(118.478131 0) scale(0.996264)"/>
       <use xlink:href="#CMR17-35" transform="translate(164.168608 0) scale(0.996264)"/>
      </g>
     </g>
    </g>
    <g id="xtick_4">
     <g id="line2d_4">
      <g>
       <use xlink:href="#mf7d1614584" x="282.464413" y="289.273356" style="stroke: #000000; stroke-width: 1.5"/>
      </g>
     </g>
     <g id="text_4">
      <!-- $\mathdefault{0.100}$ -->
      <g transform="translate(263.577096 305.226656) scale(0.18 -0.18)">
       <defs>
        <path id="CMR17-31" d="M 1702 4083 
C 1702 4217 1696 4224 1606 4224 
C 1357 3927 979 3833 621 3820 
C 602 3820 570 3820 563 3808 
C 557 3795 557 3782 557 3648 
C 755 3648 1088 3686 1344 3839 
L 1344 467 
C 1344 243 1331 166 781 166 
L 589 166 
L 589 0 
C 896 6 1216 12 1523 12 
C 1830 12 2150 6 2458 0 
L 2458 166 
L 2266 166 
C 1715 166 1702 236 1702 467 
L 1702 4083 
z
" transform="scale(0.015625)"/>
       </defs>
       <use xlink:href="#CMR17-30" transform="scale(0.996264)"/>
       <use xlink:href="#CMMI12-3a" transform="translate(45.690477 0) scale(0.996264)"/>
       <use xlink:href="#CMR17-31" transform="translate(72.787654 0) scale(0.996264)"/>
       <use xlink:href="#CMR17-30" transform="translate(118.478131 0) scale(0.996264)"/>
       <use xlink:href="#CMR17-30" transform="translate(164.168608 0) scale(0.996264)"/>
      </g>
     </g>
    </g>
    <g id="xtick_5">
     <g id="line2d_5">
      <g>
       <use xlink:href="#mf7d1614584" x="344.171722" y="289.273356" style="stroke: #000000; stroke-width: 1.5"/>
      </g>
     </g>
     <g id="text_5">
      <!-- $\mathdefault{0.125}$ -->
      <g transform="translate(325.284404 305.226656) scale(0.18 -0.18)">
       <use xlink:href="#CMR17-30" transform="scale(0.996264)"/>
       <use xlink:href="#CMMI12-3a" transform="translate(45.690477 0) scale(0.996264)"/>
       <use xlink:href="#CMR17-31" transform="translate(72.787654 0) scale(0.996264)"/>
       <use xlink:href="#CMR17-32" transform="translate(118.478131 0) scale(0.996264)"/>
       <use xlink:href="#CMR17-35" transform="translate(164.168608 0) scale(0.996264)"/>
      </g>
     </g>
    </g>
    <g id="xtick_6">
     <g id="line2d_6">
      <g>
       <use xlink:href="#mf7d1614584" x="405.87903" y="289.273356" style="stroke: #000000; stroke-width: 1.5"/>
      </g>
     </g>
     <g id="text_6">
      <!-- $\mathdefault{0.150}$ -->
      <g transform="translate(386.991713 305.226656) scale(0.18 -0.18)">
       <use xlink:href="#CMR17-30" transform="scale(0.996264)"/>
       <use xlink:href="#CMMI12-3a" transform="translate(45.690477 0) scale(0.996264)"/>
       <use xlink:href="#CMR17-31" transform="translate(72.787654 0) scale(0.996264)"/>
       <use xlink:href="#CMR17-35" transform="translate(118.478131 0) scale(0.996264)"/>
       <use xlink:href="#CMR17-30" transform="translate(164.168608 0) scale(0.996264)"/>
      </g>
     </g>
    </g>
    <g id="xtick_7">
     <g id="line2d_7">
      <defs>
       <path id="m9a4b8c20f3" d="M 0 0 
L 0 -4 
" style="stroke: #000000; stroke-width: 1.5"/>
      </defs>
      <g>
       <use xlink:href="#m9a4b8c20f3" x="72.659565" y="289.273356" style="stroke: #000000; stroke-width: 1.5"/>
      </g>
     </g>
    </g>
    <g id="xtick_8">
     <g id="line2d_8">
      <g>
       <use xlink:href="#m9a4b8c20f3" x="85.001026" y="289.273356" style="stroke: #000000; stroke-width: 1.5"/>
      </g>
     </g>
    </g>
    <g id="xtick_9">
     <g id="line2d_9">
      <g>
       <use xlink:href="#m9a4b8c20f3" x="109.68395" y="289.273356" style="stroke: #000000; stroke-width: 1.5"/>
      </g>
     </g>
    </g>
    <g id="xtick_10">
     <g id="line2d_10">
      <g>
       <use xlink:href="#m9a4b8c20f3" x="122.025411" y="289.273356" style="stroke: #000000; stroke-width: 1.5"/>
      </g>
     </g>
    </g>
    <g id="xtick_11">
     <g id="line2d_11">
      <g>
       <use xlink:href="#m9a4b8c20f3" x="134.366873" y="289.273356" style="stroke: #000000; stroke-width: 1.5"/>
      </g>
     </g>
    </g>
    <g id="xtick_12">
     <g id="line2d_12">
      <g>
       <use xlink:href="#m9a4b8c20f3" x="146.708335" y="289.273356" style="stroke: #000000; stroke-width: 1.5"/>
      </g>
     </g>
    </g>
    <g id="xtick_13">
     <g id="line2d_13">
      <g>
       <use xlink:href="#m9a4b8c20f3" x="171.391258" y="289.273356" style="stroke: #000000; stroke-width: 1.5"/>
      </g>
     </g>
    </g>
    <g id="xtick_14">
     <g id="line2d_14">
      <g>
       <use xlink:href="#m9a4b8c20f3" x="183.73272" y="289.273356" style="stroke: #000000; stroke-width: 1.5"/>
      </g>
     </g>
    </g>
    <g id="xtick_15">
     <g id="line2d_15">
      <g>
       <use xlink:href="#m9a4b8c20f3" x="196.074181" y="289.273356" style="stroke: #000000; stroke-width: 1.5"/>
      </g>
     </g>
    </g>
    <g id="xtick_16">
     <g id="line2d_16">
      <g>
       <use xlink:href="#m9a4b8c20f3" x="208.415643" y="289.273356" style="stroke: #000000; stroke-width: 1.5"/>
      </g>
     </g>
    </g>
    <g id="xtick_17">
     <g id="line2d_17">
      <g>
       <use xlink:href="#m9a4b8c20f3" x="233.098567" y="289.273356" style="stroke: #000000; stroke-width: 1.5"/>
      </g>
     </g>
    </g>
    <g id="xtick_18">
     <g id="line2d_18">
      <g>
       <use xlink:href="#m9a4b8c20f3" x="245.440028" y="289.273356" style="stroke: #000000; stroke-width: 1.5"/>
      </g>
     </g>
    </g>
    <g id="xtick_19">
     <g id="line2d_19">
      <g>
       <use xlink:href="#m9a4b8c20f3" x="257.78149" y="289.273356" style="stroke: #000000; stroke-width: 1.5"/>
      </g>
     </g>
    </g>
    <g id="xtick_20">
     <g id="line2d_20">
      <g>
       <use xlink:href="#m9a4b8c20f3" x="270.122952" y="289.273356" style="stroke: #000000; stroke-width: 1.5"/>
      </g>
     </g>
    </g>
    <g id="xtick_21">
     <g id="line2d_21">
      <g>
       <use xlink:href="#m9a4b8c20f3" x="294.805875" y="289.273356" style="stroke: #000000; stroke-width: 1.5"/>
      </g>
     </g>
    </g>
    <g id="xtick_22">
     <g id="line2d_22">
      <g>
       <use xlink:href="#m9a4b8c20f3" x="307.147337" y="289.273356" style="stroke: #000000; stroke-width: 1.5"/>
      </g>
     </g>
    </g>
    <g id="xtick_23">
     <g id="line2d_23">
      <g>
       <use xlink:href="#m9a4b8c20f3" x="319.488798" y="289.273356" style="stroke: #000000; stroke-width: 1.5"/>
      </g>
     </g>
    </g>
    <g id="xtick_24">
     <g id="line2d_24">
      <g>
       <use xlink:href="#m9a4b8c20f3" x="331.83026" y="289.273356" style="stroke: #000000; stroke-width: 1.5"/>
      </g>
     </g>
    </g>
    <g id="xtick_25">
     <g id="line2d_25">
      <g>
       <use xlink:href="#m9a4b8c20f3" x="356.513183" y="289.273356" style="stroke: #000000; stroke-width: 1.5"/>
      </g>
     </g>
    </g>
    <g id="xtick_26">
     <g id="line2d_26">
      <g>
       <use xlink:href="#m9a4b8c20f3" x="368.854645" y="289.273356" style="stroke: #000000; stroke-width: 1.5"/>
      </g>
     </g>
    </g>
    <g id="xtick_27">
     <g id="line2d_27">
      <g>
       <use xlink:href="#m9a4b8c20f3" x="381.196107" y="289.273356" style="stroke: #000000; stroke-width: 1.5"/>
      </g>
     </g>
    </g>
    <g id="xtick_28">
     <g id="line2d_28">
      <g>
       <use xlink:href="#m9a4b8c20f3" x="393.537569" y="289.273356" style="stroke: #000000; stroke-width: 1.5"/>
      </g>
     </g>
    </g>
    <g id="xtick_29">
     <g id="line2d_29">
      <g>
       <use xlink:href="#m9a4b8c20f3" x="418.220492" y="289.273356" style="stroke: #000000; stroke-width: 1.5"/>
      </g>
     </g>
    </g>
    <g id="xtick_30">
     <g id="line2d_30">
      <g>
       <use xlink:href="#m9a4b8c20f3" x="430.561954" y="289.273356" style="stroke: #000000; stroke-width: 1.5"/>
      </g>
     </g>
    </g>
    <g id="xtick_31">
     <g id="line2d_31">
      <g>
       <use xlink:href="#m9a4b8c20f3" x="442.903415" y="289.273356" style="stroke: #000000; stroke-width: 1.5"/>
      </g>
     </g>
    </g>
    <g id="text_7">
     <!-- $t/U$ -->
     <g transform="translate(242.756155 327.65868) scale(0.2 -0.2)">
      <defs>
       <path id="CMMI12-74" d="M 1286 2566 
L 1875 2566 
C 1997 2566 2061 2566 2061 2681 
C 2061 2752 2022 2752 1894 2752 
L 1331 2752 
L 1568 3664 
C 1594 3752 1594 3764 1594 3808 
C 1594 3910 1510 3968 1427 3968 
C 1376 3968 1229 3948 1178 3746 
L 928 2752 
L 326 2752 
C 198 2752 141 2752 141 2630 
C 141 2566 186 2566 307 2566 
L 877 2566 
L 454 881 
C 403 657 384 593 384 510 
C 384 210 595 -64 954 -64 
C 1600 -64 1946 868 1946 913 
C 1946 951 1920 970 1882 970 
C 1869 970 1843 970 1830 944 
C 1824 938 1818 932 1773 830 
C 1638 510 1344 64 973 64 
C 781 64 768 223 768 364 
C 768 370 768 491 787 568 
L 1286 2566 
z
" transform="scale(0.015625)"/>
       <path id="CMMI12-3d" d="M 2746 4563 
C 2746 4569 2784 4665 2784 4678 
C 2784 4755 2720 4800 2669 4800 
C 2637 4800 2579 4800 2528 4659 
L 384 -1364 
C 384 -1370 346 -1466 346 -1479 
C 346 -1556 410 -1600 461 -1600 
C 499 -1600 557 -1594 602 -1460 
L 2746 4563 
z
" transform="scale(0.015625)"/>
       <path id="CMMI12-55" d="M 3238 1469 
C 3014 579 2272 57 1670 57 
C 1210 57 896 362 896 890 
C 896 916 896 1107 966 1386 
L 1594 3886 
C 1651 4102 1664 4166 2118 4166 
C 2234 4166 2298 4166 2298 4281 
C 2298 4352 2240 4352 2202 4352 
C 2086 4352 1952 4339 1830 4339 
L 1075 4339 
C 954 4339 819 4352 698 4352 
C 653 4352 576 4352 576 4230 
C 576 4166 621 4166 742 4166 
C 1126 4166 1126 4115 1126 4045 
C 1126 4007 1082 3822 1050 3714 
L 493 1488 
C 474 1418 435 1246 435 1075 
C 435 375 941 -128 1638 -128 
C 2285 -128 3002 381 3328 1189 
C 3373 1297 3430 1520 3469 1692 
C 3533 1921 3667 2480 3712 2646 
L 3955 3600 
C 4038 3931 4090 4140 4653 4166 
C 4704 4172 4730 4223 4730 4281 
C 4730 4352 4672 4352 4646 4352 
C 4557 4352 4442 4339 4352 4339 
L 4051 4339 
C 3654 4339 3450 4352 3443 4352 
C 3405 4352 3328 4352 3328 4230 
C 3328 4166 3379 4166 3424 4166 
C 3808 4153 3834 4007 3834 3892 
C 3834 3835 3834 3816 3808 3727 
L 3238 1469 
z
" transform="scale(0.015625)"/>
      </defs>
      <use xlink:href="#CMMI12-74" transform="scale(0.996264)"/>
      <use xlink:href="#CMMI12-3d" transform="translate(35.22633 0) scale(0.996264)"/>
      <use xlink:href="#CMMI12-55" transform="translate(84.001249 0) scale(0.996264)"/>
     </g>
    </g>
   </g>
   <g id="matplotlib.axis_2">
    <g id="ytick_1">
     <g id="line2d_32">
      <defs>
       <path id="m2497d6b96e" d="M 0 0 
L 7 0 
" style="stroke: #000000; stroke-width: 1.5"/>
      </defs>
      <g>
       <use xlink:href="#m2497d6b96e" x="67.72298" y="271.486356" style="stroke: #000000; stroke-width: 1.5"/>
      </g>
     </g>
     <g id="text_8">
      <!-- $\mathdefault{0.70}$ -->
      <g transform="translate(34.67263 277.713006) scale(0.18 -0.18)">
       <use xlink:href="#CMR17-30" transform="scale(0.996264)"/>
       <use xlink:href="#CMMI12-3a" transform="translate(45.690477 0) scale(0.996264)"/>
       <use xlink:href="#CMR17-37" transform="translate(72.787654 0) scale(0.996264)"/>
       <use xlink:href="#CMR17-30" transform="translate(118.478131 0) scale(0.996264)"/>
      </g>
     </g>
    </g>
    <g id="ytick_2">
     <g id="line2d_33">
      <g>
       <use xlink:href="#m2497d6b96e" x="67.72298" y="230.468567" style="stroke: #000000; stroke-width: 1.5"/>
      </g>
     </g>
     <g id="text_9">
      <!-- $\mathdefault{0.75}$ -->
      <g transform="translate(34.67263 236.695217) scale(0.18 -0.18)">
       <use xlink:href="#CMR17-30" transform="scale(0.996264)"/>
       <use xlink:href="#CMMI12-3a" transform="translate(45.690477 0) scale(0.996264)"/>
       <use xlink:href="#CMR17-37" transform="translate(72.787654 0) scale(0.996264)"/>
       <use xlink:href="#CMR17-35" transform="translate(118.478131 0) scale(0.996264)"/>
      </g>
     </g>
    </g>
    <g id="ytick_3">
     <g id="line2d_34">
      <g>
       <use xlink:href="#m2497d6b96e" x="67.72298" y="189.450777" style="stroke: #000000; stroke-width: 1.5"/>
      </g>
     </g>
     <g id="text_10">
      <!-- $\mathdefault{0.80}$ -->
      <g transform="translate(34.67263 195.677427) scale(0.18 -0.18)">
       <defs>
        <path id="CMR17-38" d="M 1741 2289 
C 2144 2494 2554 2803 2554 3298 
C 2554 3884 1990 4224 1472 4224 
C 890 4224 378 3800 378 3215 
C 378 3054 416 2777 666 2533 
C 730 2469 998 2276 1171 2154 
C 883 2006 211 1652 211 945 
C 211 282 838 -128 1459 -128 
C 2144 -128 2720 366 2720 1022 
C 2720 1607 2330 1877 2074 2051 
L 1741 2289 
z
M 902 2855 
C 851 2887 595 3086 595 3388 
C 595 3781 998 4076 1459 4076 
C 1965 4076 2336 3716 2336 3298 
C 2336 2700 1670 2359 1638 2359 
C 1632 2359 1626 2359 1574 2398 
L 902 2855 
z
M 2080 1536 
C 2176 1466 2483 1253 2483 861 
C 2483 385 2010 25 1472 25 
C 890 25 448 443 448 951 
C 448 1459 838 1884 1280 2083 
L 2080 1536 
z
" transform="scale(0.015625)"/>
       </defs>
       <use xlink:href="#CMR17-30" transform="scale(0.996264)"/>
       <use xlink:href="#CMMI12-3a" transform="translate(45.690477 0) scale(0.996264)"/>
       <use xlink:href="#CMR17-38" transform="translate(72.787654 0) scale(0.996264)"/>
       <use xlink:href="#CMR17-30" transform="translate(118.478131 0) scale(0.996264)"/>
      </g>
     </g>
    </g>
    <g id="ytick_4">
     <g id="line2d_35">
      <g>
       <use xlink:href="#m2497d6b96e" x="67.72298" y="148.432988" style="stroke: #000000; stroke-width: 1.5"/>
      </g>
     </g>
     <g id="text_11">
      <!-- $\mathdefault{0.85}$ -->
      <g transform="translate(34.67263 154.659638) scale(0.18 -0.18)">
       <use xlink:href="#CMR17-30" transform="scale(0.996264)"/>
       <use xlink:href="#CMMI12-3a" transform="translate(45.690477 0) scale(0.996264)"/>
       <use xlink:href="#CMR17-38" transform="translate(72.787654 0) scale(0.996264)"/>
       <use xlink:href="#CMR17-35" transform="translate(118.478131 0) scale(0.996264)"/>
      </g>
     </g>
    </g>
    <g id="ytick_5">
     <g id="line2d_36">
      <g>
       <use xlink:href="#m2497d6b96e" x="67.72298" y="107.415199" style="stroke: #000000; stroke-width: 1.5"/>
      </g>
     </g>
     <g id="text_12">
      <!-- $\mathdefault{0.90}$ -->
      <g transform="translate(34.67263 113.641849) scale(0.18 -0.18)">
       <defs>
        <path id="CMR17-39" d="M 2253 1871 
C 2253 448 1670 25 1190 25 
C 1043 25 685 43 538 281 
C 704 256 826 345 826 505 
C 826 678 685 736 595 736 
C 538 736 365 710 365 492 
C 365 68 742 -128 1203 -128 
C 1939 -128 2688 665 2688 2090 
C 2688 3857 1971 4224 1485 4224 
C 851 4224 243 3664 243 2800 
C 243 2000 762 1408 1414 1408 
C 1952 1408 2189 1910 2253 2122 
L 2253 1871 
z
M 1427 1510 
C 1254 1510 1011 1542 813 1929 
C 678 2181 678 2477 678 2793 
C 678 3174 678 3438 858 3722 
C 947 3857 1114 4076 1485 4076 
C 2240 4076 2240 2909 2240 2651 
C 2240 2193 2035 1510 1427 1510 
z
" transform="scale(0.015625)"/>
       </defs>
       <use xlink:href="#CMR17-30" transform="scale(0.996264)"/>
       <use xlink:href="#CMMI12-3a" transform="translate(45.690477 0) scale(0.996264)"/>
       <use xlink:href="#CMR17-39" transform="translate(72.787654 0) scale(0.996264)"/>
       <use xlink:href="#CMR17-30" transform="translate(118.478131 0) scale(0.996264)"/>
      </g>
     </g>
    </g>
    <g id="ytick_6">
     <g id="line2d_37">
      <g>
       <use xlink:href="#m2497d6b96e" x="67.72298" y="66.39741" style="stroke: #000000; stroke-width: 1.5"/>
      </g>
     </g>
     <g id="text_13">
      <!-- $\mathdefault{0.95}$ -->
      <g transform="translate(34.67263 72.62406) scale(0.18 -0.18)">
       <use xlink:href="#CMR17-30" transform="scale(0.996264)"/>
       <use xlink:href="#CMMI12-3a" transform="translate(45.690477 0) scale(0.996264)"/>
       <use xlink:href="#CMR17-39" transform="translate(72.787654 0) scale(0.996264)"/>
       <use xlink:href="#CMR17-35" transform="translate(118.478131 0) scale(0.996264)"/>
      </g>
     </g>
    </g>
    <g id="ytick_7">
     <g id="line2d_38">
      <g>
       <use xlink:href="#m2497d6b96e" x="67.72298" y="25.379621" style="stroke: #000000; stroke-width: 1.5"/>
      </g>
     </g>
     <g id="text_14">
      <!-- $\mathdefault{1.00}$ -->
      <g transform="translate(34.67263 31.606271) scale(0.18 -0.18)">
       <use xlink:href="#CMR17-31" transform="scale(0.996264)"/>
       <use xlink:href="#CMMI12-3a" transform="translate(45.690477 0) scale(0.996264)"/>
       <use xlink:href="#CMR17-30" transform="translate(72.787654 0) scale(0.996264)"/>
       <use xlink:href="#CMR17-30" transform="translate(118.478131 0) scale(0.996264)"/>
      </g>
     </g>
    </g>
    <g id="ytick_8">
     <g id="line2d_39">
      <defs>
       <path id="m30fb97fc81" d="M 0 0 
L 4 0 
" style="stroke: #000000; stroke-width: 1.5"/>
      </defs>
      <g>
       <use xlink:href="#m30fb97fc81" x="67.72298" y="287.893472" style="stroke: #000000; stroke-width: 1.5"/>
      </g>
     </g>
    </g>
    <g id="ytick_9">
     <g id="line2d_40">
      <g>
       <use xlink:href="#m30fb97fc81" x="67.72298" y="279.689914" style="stroke: #000000; stroke-width: 1.5"/>
      </g>
     </g>
    </g>
    <g id="ytick_10">
     <g id="line2d_41">
      <g>
       <use xlink:href="#m30fb97fc81" x="67.72298" y="263.282798" style="stroke: #000000; stroke-width: 1.5"/>
      </g>
     </g>
    </g>
    <g id="ytick_11">
     <g id="line2d_42">
      <g>
       <use xlink:href="#m30fb97fc81" x="67.72298" y="255.07924" style="stroke: #000000; stroke-width: 1.5"/>
      </g>
     </g>
    </g>
    <g id="ytick_12">
     <g id="line2d_43">
      <g>
       <use xlink:href="#m30fb97fc81" x="67.72298" y="246.875682" style="stroke: #000000; stroke-width: 1.5"/>
      </g>
     </g>
    </g>
    <g id="ytick_13">
     <g id="line2d_44">
      <g>
       <use xlink:href="#m30fb97fc81" x="67.72298" y="238.672125" style="stroke: #000000; stroke-width: 1.5"/>
      </g>
     </g>
    </g>
    <g id="ytick_14">
     <g id="line2d_45">
      <g>
       <use xlink:href="#m30fb97fc81" x="67.72298" y="222.265009" style="stroke: #000000; stroke-width: 1.5"/>
      </g>
     </g>
    </g>
    <g id="ytick_15">
     <g id="line2d_46">
      <g>
       <use xlink:href="#m30fb97fc81" x="67.72298" y="214.061451" style="stroke: #000000; stroke-width: 1.5"/>
      </g>
     </g>
    </g>
    <g id="ytick_16">
     <g id="line2d_47">
      <g>
       <use xlink:href="#m30fb97fc81" x="67.72298" y="205.857893" style="stroke: #000000; stroke-width: 1.5"/>
      </g>
     </g>
    </g>
    <g id="ytick_17">
     <g id="line2d_48">
      <g>
       <use xlink:href="#m30fb97fc81" x="67.72298" y="197.654335" style="stroke: #000000; stroke-width: 1.5"/>
      </g>
     </g>
    </g>
    <g id="ytick_18">
     <g id="line2d_49">
      <g>
       <use xlink:href="#m30fb97fc81" x="67.72298" y="181.24722" style="stroke: #000000; stroke-width: 1.5"/>
      </g>
     </g>
    </g>
    <g id="ytick_19">
     <g id="line2d_50">
      <g>
       <use xlink:href="#m30fb97fc81" x="67.72298" y="173.043662" style="stroke: #000000; stroke-width: 1.5"/>
      </g>
     </g>
    </g>
    <g id="ytick_20">
     <g id="line2d_51">
      <g>
       <use xlink:href="#m30fb97fc81" x="67.72298" y="164.840104" style="stroke: #000000; stroke-width: 1.5"/>
      </g>
     </g>
    </g>
    <g id="ytick_21">
     <g id="line2d_52">
      <g>
       <use xlink:href="#m30fb97fc81" x="67.72298" y="156.636546" style="stroke: #000000; stroke-width: 1.5"/>
      </g>
     </g>
    </g>
    <g id="ytick_22">
     <g id="line2d_53">
      <g>
       <use xlink:href="#m30fb97fc81" x="67.72298" y="140.22943" style="stroke: #000000; stroke-width: 1.5"/>
      </g>
     </g>
    </g>
    <g id="ytick_23">
     <g id="line2d_54">
      <g>
       <use xlink:href="#m30fb97fc81" x="67.72298" y="132.025873" style="stroke: #000000; stroke-width: 1.5"/>
      </g>
     </g>
    </g>
    <g id="ytick_24">
     <g id="line2d_55">
      <g>
       <use xlink:href="#m30fb97fc81" x="67.72298" y="123.822315" style="stroke: #000000; stroke-width: 1.5"/>
      </g>
     </g>
    </g>
    <g id="ytick_25">
     <g id="line2d_56">
      <g>
       <use xlink:href="#m30fb97fc81" x="67.72298" y="115.618757" style="stroke: #000000; stroke-width: 1.5"/>
      </g>
     </g>
    </g>
    <g id="ytick_26">
     <g id="line2d_57">
      <g>
       <use xlink:href="#m30fb97fc81" x="67.72298" y="99.211641" style="stroke: #000000; stroke-width: 1.5"/>
      </g>
     </g>
    </g>
    <g id="ytick_27">
     <g id="line2d_58">
      <g>
       <use xlink:href="#m30fb97fc81" x="67.72298" y="91.008083" style="stroke: #000000; stroke-width: 1.5"/>
      </g>
     </g>
    </g>
    <g id="ytick_28">
     <g id="line2d_59">
      <g>
       <use xlink:href="#m30fb97fc81" x="67.72298" y="82.804525" style="stroke: #000000; stroke-width: 1.5"/>
      </g>
     </g>
    </g>
    <g id="ytick_29">
     <g id="line2d_60">
      <g>
       <use xlink:href="#m30fb97fc81" x="67.72298" y="74.600968" style="stroke: #000000; stroke-width: 1.5"/>
      </g>
     </g>
    </g>
    <g id="ytick_30">
     <g id="line2d_61">
      <g>
       <use xlink:href="#m30fb97fc81" x="67.72298" y="58.193852" style="stroke: #000000; stroke-width: 1.5"/>
      </g>
     </g>
    </g>
    <g id="ytick_31">
     <g id="line2d_62">
      <g>
       <use xlink:href="#m30fb97fc81" x="67.72298" y="49.990294" style="stroke: #000000; stroke-width: 1.5"/>
      </g>
     </g>
    </g>
    <g id="ytick_32">
     <g id="line2d_63">
      <g>
       <use xlink:href="#m30fb97fc81" x="67.72298" y="41.786736" style="stroke: #000000; stroke-width: 1.5"/>
      </g>
     </g>
    </g>
    <g id="ytick_33">
     <g id="line2d_64">
      <g>
       <use xlink:href="#m30fb97fc81" x="67.72298" y="33.583178" style="stroke: #000000; stroke-width: 1.5"/>
      </g>
     </g>
    </g>
    <g id="ytick_34">
     <g id="line2d_65">
      <g>
       <use xlink:href="#m30fb97fc81" x="67.72298" y="17.176063" style="stroke: #000000; stroke-width: 1.5"/>
      </g>
     </g>
    </g>
    <g id="text_15">
     <!-- $\alpha$ -->
     <g transform="translate(26.796997 157.321346) rotate(-90) scale(0.2 -0.2)">
      <defs>
       <path id="CMMI12-b" d="M 2963 1615 
C 2963 2234 2611 2816 1933 2816 
C 1094 2816 256 1902 256 996 
C 256 440 602 -64 1254 -64 
C 1651 -64 2125 89 2579 472 
C 2669 115 2867 -64 3142 -64 
C 3488 -64 3661 293 3661 376 
C 3661 434 3616 434 3597 434 
C 3546 434 3539 415 3520 364 
C 3462 204 3315 64 3162 64 
C 2963 64 2963 472 2963 862 
C 3616 1641 3770 2445 3770 2451 
C 3770 2509 3718 2509 3699 2509 
C 3642 2509 3635 2490 3610 2375 
C 3526 2094 3360 1596 2963 1072 
L 2963 1615 
z
M 2560 625 
C 1997 121 1491 64 1267 64 
C 813 64 685 466 685 766 
C 685 1040 826 1692 1024 2043 
C 1286 2490 1645 2687 1933 2687 
C 2554 2687 2554 1877 2554 1340 
C 2554 1181 2547 1015 2547 855 
C 2547 728 2554 696 2560 625 
z
" transform="scale(0.015625)"/>
      </defs>
      <use xlink:href="#CMMI12-b" transform="scale(0.996264)"/>
     </g>
    </g>
   </g>
   <g id="line2d_66">
    <path d="M 85.001026 63.558125 
L 109.68395 264.877874 
L 134.366873 266.018142 
L 159.049796 264.147319 
L 183.73272 253.381584 
L 208.415643 226.128972 
L 233.098567 179.7121 
L 257.78149 115.118772 
L 282.464413 60.834139 
L 307.147337 52.628895 
L 331.83026 46.938458 
L 356.513183 42.901744 
L 381.196107 39.94292 
L 405.87903 37.71855 
L 430.561954 36.787919 
" clip-path="url(#p45ac25673b)" style="fill: none; stroke-dasharray: 7.4,3.2; stroke-dashoffset: 0; stroke: #d8434e; stroke-width: 2"/>
   </g>
   <g id="line2d_67">
    <path d="M 134.366873 46.420891 
L 159.049796 267.728095 
L 183.73272 269.333956 
L 208.415643 262.262144 
L 233.098567 236.191062 
L 257.78149 186.815941 
L 282.464413 111.701948 
L 307.147337 63.039024 
L 331.83026 53.799454 
L 356.513183 48.034285 
L 381.196107 44.022174 
L 405.87903 40.844879 
L 430.561954 38.549169 
" clip-path="url(#p45ac25673b)" style="fill: none; stroke-dasharray: 7.4,3.2; stroke-dashoffset: 0; stroke: #f67a49; stroke-width: 2"/>
   </g>
   <g id="line2d_68">
    <path d="M 85.001026 26.234517 
L 109.68395 26.409109 
L 134.366873 34.834459 
L 159.049796 267.419041 
L 183.73272 271.30731 
L 208.415643 271.623331 
L 233.098567 257.922408 
L 257.78149 214.828087 
L 282.464413 141.149663 
L 307.147337 67.151855 
L 331.83026 58.013903 
L 356.513183 50.861201 
L 381.196107 45.87051 
L 405.87903 41.949865 
L 430.561954 39.67054 
" clip-path="url(#p45ac25673b)" style="fill: none; stroke-dasharray: 7.4,3.2; stroke-dashoffset: 0; stroke: #fdbf6f; stroke-width: 2"/>
   </g>
   <g id="line2d_69">
    <path d="M 109.68395 25.536619 
L 134.366873 27.927174 
L 159.049796 263.783746 
L 183.73272 269.76759 
L 208.415643 276.713658 
L 233.098567 270.69684 
L 257.78149 219.692125 
L 282.464413 155.666437 
L 307.147337 71.814763 
L 331.83026 59.880855 
L 356.513183 52.048888 
L 381.196107 46.640879 
L 405.87903 42.757935 
L 430.561954 37.880529 
" clip-path="url(#p45ac25673b)" style="fill: none; stroke-dasharray: 7.4,3.2; stroke-dashoffset: 0; stroke: #feeda1; stroke-width: 2"/>
   </g>
   <g id="patch_4">
    <path d="M 67.72298 289.273356 
L 67.72298 12.96 
" style="fill: none; stroke: #000000; stroke-width: 2.4; stroke-linejoin: miter; stroke-linecap: square"/>
   </g>
   <g id="patch_5">
    <path d="M 447.84 289.273356 
L 447.84 12.96 
" style="fill: none; stroke: #000000; stroke-width: 2.4; stroke-linejoin: miter; stroke-linecap: square"/>
   </g>
   <g id="patch_6">
    <path d="M 67.72298 289.273356 
L 447.84 289.273356 
" style="fill: none; stroke: #000000; stroke-width: 2.4; stroke-linejoin: miter; stroke-linecap: square"/>
   </g>
   <g id="patch_7">
    <path d="M 67.72298 12.96 
L 447.84 12.96 
" style="fill: none; stroke: #000000; stroke-width: 2.4; stroke-linejoin: miter; stroke-linecap: square"/>
   </g>
  </g>
 </g>
 <defs>
  <clipPath id="p45ac25673b">
   <rect x="67.72298" y="12.96" width="380.11702" height="276.313356"/>
  </clipPath>
 </defs>
</svg>
